#usda 1.0
(
    doc = "USD scene for Flipper cable demo"
)

def Xform "FlipperScene" {
    def Xform "Ball1" (
        customData = { string purpose = "ball" }
    )
    {
        double3 xformOp:translate = (0.90, 0.95, 0.0)
        uniform token[] xformOpOrder = ["xformOp:translate"]
        double radius = 0.03
        double mass = 0.0028274333882308137
    }

    def Xform "Ball2" (
        customData = { string purpose = "ball" }
    )
    {
        double3 xformOp:translate = (0.08, 0.5, 0.0)
        uniform token[] xformOpOrder = ["xformOp:translate"]
        double radius = 0.03
        double mass = 0.0028274333882308137
    }

    def Xform "Obs1" (
        customData = { string purpose = "obstacle" }
    )
    {
        double3 xformOp:translate = (0.25, 0.6, 0.0)
        uniform token[] xformOpOrder = ["xformOp:translate"]
        double radius = 0.1
    }

    def Xform "Obs2" (
        customData = { string purpose = "obstacle" }
    )
    {
        double3 xformOp:translate = (0.75, 0.5, 0.0)
        uniform token[] xformOpOrder = ["xformOp:translate"]
        double radius = 0.1
    }

    def Xform "Obs3" (
        customData = { string purpose = "obstacle" }
    )
    {
        double3 xformOp:translate = (0.7, 1.0, 0.0)
        uniform token[] xformOpOrder = ["xformOp:translate"]
        double radius = 0.12
    }

    def Xform "Obs4" (
        customData = { string purpose = "obstacle" }
    )
    {
        double3 xformOp:translate = (0.2, 1.2, 0.0)
        uniform token[] xformOpOrder = ["xformOp:translate"]
        double radius = 0.1
    }

    def Xform "Joint1" (
        customData = { string purpose = "cable_joint" }
    )
    {
        token entityA = "Ball2"
        token entityB = "Obs4"

        double restLength = 0.6731358332498777
        double3 attachA = (0.08085505352834965, 0.5299878122487063, 0.0)
        double3 attachB = (0.10004062583764584, 1.202850178427832, 0.0)
    }

    def Xform "Joint2" (
        customData = { string purpose = "cable_joint" }
    )
    {
        token entityA = "Obs4"
        token entityB = "Obs3"

        double restLength = 0.5381449618829482
        double3 attachA = (0.23366516978503094, 1.2941629244625772, 0.0)
        double3 attachB = (0.740398203742037, 1.1129955093550927, 0.0)
    }

    def Xform "Joint3" (
        customData = { string purpose = "cable_joint" }
    )
    {
        token entityA = "Obs3"
        token entityB = "Ball1"


        double restLength = 0.1376305461424022
        double3 attachA = (0.7914301947495155, 1.0777207789980623, 0.0)
        double3 attachB = (0.8805698052504844, 0.9728575486873788, 0.0)
    }

    def Xform "CablePath" (
        customData = { string purpose = "cable_path" }
    )
    {
        token[] joints = ["Joint1", "Joint2", "Joint3"]
        token[] linkTypes = ["hybrid-attachment", "rolling", "rolling", "hybrid-attachment"]
        bool[] cw = [true, true, true, true]
        double[] stored = [0.0, 0.18856494486496805, 0.06274932338455928, 0.0]
    }
}
